<svg xmlns="http://www.w3.org/2000/svg" xmlns:xlink="http://www.w3.org/1999/xlink" width="500" zoomAndPan="magnify" viewBox="0 0 375 149.999998" height="200" preserveAspectRatio="xMidYMid meet" version="1.0"><defs><g/><clipPath id="cd51bddf53"><path d="M 0 16.214844 L 116 16.214844 L 116 138.464844 L 0 138.464844 Z M 0 16.214844 " clip-rule="nonzero"/></clipPath><clipPath id="99f5d17227"><path d="M 66.777344 73.171875 L 14.890625 73.171875 C 12.878906 73.171875 11.421875 71.246094 11.964844 69.304688 L 26.210938 18.441406 C 26.578125 17.125 27.773438 16.21875 29.136719 16.21875 L 81.023438 16.21875 C 83.035156 16.21875 84.492188 18.144531 83.949219 20.085938 L 69.703125 70.949219 C 69.335938 72.261719 68.140625 73.171875 66.777344 73.171875 Z M 33.078125 111.566406 L 40.410156 85.375 C 40.957031 83.433594 39.5 81.511719 37.488281 81.511719 L 10.8125 81.511719 C 9.453125 81.511719 8.257812 82.417969 7.890625 83.730469 L 0.554688 109.921875 C 0.0117188 111.863281 1.464844 113.785156 3.480469 113.785156 L 30.152344 113.785156 C 31.515625 113.785156 32.710938 112.878906 33.078125 111.566406 Z M 46.574219 83.730469 L 32.328125 134.597656 C 31.785156 136.539062 33.242188 138.460938 35.253906 138.460938 L 87.144531 138.460938 C 88.503906 138.460938 89.699219 137.554688 90.066406 136.242188 L 104.3125 85.375 C 104.855469 83.433594 103.398438 81.511719 101.386719 81.511719 L 49.5 81.511719 C 48.136719 81.511719 46.941406 82.417969 46.574219 83.730469 Z M 83.203125 43.117188 L 75.867188 69.304688 C 75.324219 71.246094 76.78125 73.171875 78.792969 73.171875 L 105.464844 73.171875 C 106.828125 73.171875 108.023438 72.261719 108.390625 70.949219 L 115.726562 44.761719 C 116.269531 42.820312 114.8125 40.894531 112.800781 40.894531 L 86.125 40.894531 C 84.765625 40.894531 83.570312 41.800781 83.203125 43.117188 Z M 83.203125 43.117188 " clip-rule="nonzero"/></clipPath><linearGradient x1="114.296443" gradientTransform="matrix(0.244018, 0, 0, 0.244486, 0.439235, 16.219026)" y1="-47.633967" x2="358.61086" gradientUnits="userSpaceOnUse" y2="547.607243" id="bb61ee1cc6"><stop stop-opacity="1" stop-color="rgb(0%, 98.799133%, 65.899658%)" offset="0"/><stop stop-opacity="1" stop-color="rgb(0%, 98.799133%, 65.899658%)" offset="0.0625"/><stop stop-opacity="1" stop-color="rgb(0.0213623%, 98.773193%, 65.965271%)" offset="0.09375"/><stop stop-opacity="1" stop-color="rgb(0.100708%, 98.677063%, 66.210938%)" offset="0.101562"/><stop stop-opacity="1" stop-color="rgb(0.216675%, 98.536682%, 66.571045%)" offset="0.109375"/><stop stop-opacity="1" stop-color="rgb(0.332642%, 98.396301%, 66.929626%)" offset="0.117188"/><stop stop-opacity="1" stop-color="rgb(0.448608%, 98.25592%, 67.289734%)" offset="0.125"/><stop stop-opacity="1" stop-color="rgb(0.564575%, 98.117065%, 67.649841%)" offset="0.132812"/><stop stop-opacity="1" stop-color="rgb(0.679016%, 97.976685%, 68.008423%)" offset="0.140625"/><stop stop-opacity="1" stop-color="rgb(0.794983%, 97.836304%, 68.36853%)" offset="0.148438"/><stop stop-opacity="1" stop-color="rgb(0.91095%, 97.695923%, 68.727112%)" offset="0.15625"/><stop stop-opacity="1" stop-color="rgb(1.026917%, 97.555542%, 69.087219%)" offset="0.164063"/><stop stop-opacity="1" stop-color="rgb(1.142883%, 97.415161%, 69.445801%)" offset="0.171875"/><stop stop-opacity="1" stop-color="rgb(1.25885%, 97.27478%, 69.805908%)" offset="0.179688"/><stop stop-opacity="1" stop-color="rgb(1.374817%, 97.135925%, 70.16449%)" offset="0.1875"/><stop stop-opacity="1" stop-color="rgb(1.490784%, 96.995544%, 70.524597%)" offset="0.195313"/><stop stop-opacity="1" stop-color="rgb(1.60675%, 96.855164%, 70.883179%)" offset="0.203125"/><stop stop-opacity="1" stop-color="rgb(1.722717%, 96.714783%, 71.243286%)" offset="0.210938"/><stop stop-opacity="1" stop-color="rgb(1.838684%, 96.574402%, 71.603394%)" offset="0.21875"/><stop stop-opacity="1" stop-color="rgb(1.954651%, 96.434021%, 71.961975%)" offset="0.226563"/><stop stop-opacity="1" stop-color="rgb(2.070618%, 96.29364%, 72.322083%)" offset="0.234375"/><stop stop-opacity="1" stop-color="rgb(2.186584%, 96.153259%, 72.680664%)" offset="0.242188"/><stop stop-opacity="1" stop-color="rgb(2.302551%, 96.014404%, 73.040771%)" offset="0.25"/><stop stop-opacity="1" stop-color="rgb(2.418518%, 95.874023%, 73.399353%)" offset="0.257813"/><stop stop-opacity="1" stop-color="rgb(2.534485%, 95.733643%, 73.75946%)" offset="0.265625"/><stop stop-opacity="1" stop-color="rgb(2.650452%, 95.593262%, 74.118042%)" offset="0.273438"/><stop stop-opacity="1" stop-color="rgb(2.766418%, 95.452881%, 74.478149%)" offset="0.281113"/><stop stop-opacity="1" stop-color="rgb(2.824402%, 95.38269%, 74.658203%)" offset="0.28125"/><stop stop-opacity="1" stop-color="rgb(2.882385%, 95.3125%, 74.836731%)" offset="0.289062"/><stop stop-opacity="1" stop-color="rgb(2.998352%, 95.172119%, 75.196838%)" offset="0.296875"/><stop stop-opacity="1" stop-color="rgb(3.114319%, 95.031738%, 75.556946%)" offset="0.304688"/><stop stop-opacity="1" stop-color="rgb(3.230286%, 94.892883%, 75.915527%)" offset="0.3125"/><stop stop-opacity="1" stop-color="rgb(3.346252%, 94.752502%, 76.275635%)" offset="0.320313"/><stop stop-opacity="1" stop-color="rgb(3.462219%, 94.612122%, 76.634216%)" offset="0.328125"/><stop stop-opacity="1" stop-color="rgb(3.578186%, 94.471741%, 76.994324%)" offset="0.335938"/><stop stop-opacity="1" stop-color="rgb(3.694153%, 94.33136%, 77.352905%)" offset="0.34375"/><stop stop-opacity="1" stop-color="rgb(3.81012%, 94.190979%, 77.713013%)" offset="0.351563"/><stop stop-opacity="1" stop-color="rgb(3.926086%, 94.050598%, 78.071594%)" offset="0.359375"/><stop stop-opacity="1" stop-color="rgb(4.042053%, 93.911743%, 78.431702%)" offset="0.367188"/><stop stop-opacity="1" stop-color="rgb(4.15802%, 93.771362%, 78.790283%)" offset="0.375"/><stop stop-opacity="1" stop-color="rgb(4.273987%, 93.630981%, 79.150391%)" offset="0.382813"/><stop stop-opacity="1" stop-color="rgb(4.389954%, 93.490601%, 79.510498%)" offset="0.390625"/><stop stop-opacity="1" stop-color="rgb(4.50592%, 93.35022%, 79.86908%)" offset="0.398438"/><stop stop-opacity="1" stop-color="rgb(4.621887%, 93.209839%, 80.229187%)" offset="0.40625"/><stop stop-opacity="1" stop-color="rgb(4.737854%, 93.069458%, 80.587769%)" offset="0.414063"/><stop stop-opacity="1" stop-color="rgb(4.853821%, 92.929077%, 80.947876%)" offset="0.421875"/><stop stop-opacity="1" stop-color="rgb(4.969788%, 92.790222%, 81.306458%)" offset="0.429688"/><stop stop-opacity="1" stop-color="rgb(5.085754%, 92.649841%, 81.666565%)" offset="0.4375"/><stop stop-opacity="1" stop-color="rgb(5.201721%, 92.50946%, 82.025146%)" offset="0.445313"/><stop stop-opacity="1" stop-color="rgb(5.317688%, 92.36908%, 82.385254%)" offset="0.453125"/><stop stop-opacity="1" stop-color="rgb(5.433655%, 92.228699%, 82.743835%)" offset="0.460938"/><stop stop-opacity="1" stop-color="rgb(5.549622%, 92.088318%, 83.103943%)" offset="0.46875"/><stop stop-opacity="1" stop-color="rgb(5.665588%, 91.947937%, 83.46405%)" offset="0.476563"/><stop stop-opacity="1" stop-color="rgb(5.781555%, 91.807556%, 83.822632%)" offset="0.484375"/><stop stop-opacity="1" stop-color="rgb(5.897522%, 91.668701%, 84.182739%)" offset="0.492188"/><stop stop-opacity="1" stop-color="rgb(6.013489%, 91.52832%, 84.541321%)" offset="0.5"/><stop stop-opacity="1" stop-color="rgb(6.129456%, 91.387939%, 84.901428%)" offset="0.507813"/><stop stop-opacity="1" stop-color="rgb(6.245422%, 91.247559%, 85.26001%)" offset="0.515625"/><stop stop-opacity="1" stop-color="rgb(6.361389%, 91.107178%, 85.620117%)" offset="0.523438"/><stop stop-opacity="1" stop-color="rgb(6.477356%, 90.966797%, 85.978699%)" offset="0.53125"/><stop stop-opacity="1" stop-color="rgb(6.593323%, 90.826416%, 86.338806%)" offset="0.539063"/><stop stop-opacity="1" stop-color="rgb(6.70929%, 90.687561%, 86.697388%)" offset="0.546875"/><stop stop-opacity="1" stop-color="rgb(6.825256%, 90.54718%, 87.057495%)" offset="0.554688"/><stop stop-opacity="1" stop-color="rgb(6.941223%, 90.406799%, 87.417603%)" offset="0.5625"/><stop stop-opacity="1" stop-color="rgb(7.05719%, 90.266418%, 87.776184%)" offset="0.570313"/><stop stop-opacity="1" stop-color="rgb(7.171631%, 90.126038%, 88.136292%)" offset="0.578125"/><stop stop-opacity="1" stop-color="rgb(7.287598%, 89.985657%, 88.494873%)" offset="0.585938"/><stop stop-opacity="1" stop-color="rgb(7.403564%, 89.845276%, 88.85498%)" offset="0.59375"/><stop stop-opacity="1" stop-color="rgb(7.519531%, 89.704895%, 89.213562%)" offset="0.601563"/><stop stop-opacity="1" stop-color="rgb(7.635498%, 89.56604%, 89.573669%)" offset="0.609375"/><stop stop-opacity="1" stop-color="rgb(7.751465%, 89.425659%, 89.932251%)" offset="0.617188"/><stop stop-opacity="1" stop-color="rgb(7.867432%, 89.285278%, 90.292358%)" offset="0.625"/><stop stop-opacity="1" stop-color="rgb(7.983398%, 89.144897%, 90.65094%)" offset="0.632812"/><stop stop-opacity="1" stop-color="rgb(8.099365%, 89.004517%, 91.011047%)" offset="0.640625"/><stop stop-opacity="1" stop-color="rgb(8.215332%, 88.864136%, 91.371155%)" offset="0.648438"/><stop stop-opacity="1" stop-color="rgb(8.331299%, 88.723755%, 91.729736%)" offset="0.65625"/><stop stop-opacity="1" stop-color="rgb(8.447266%, 88.583374%, 92.089844%)" offset="0.664062"/><stop stop-opacity="1" stop-color="rgb(8.563232%, 88.444519%, 92.448425%)" offset="0.671875"/><stop stop-opacity="1" stop-color="rgb(8.679199%, 88.304138%, 92.808533%)" offset="0.679688"/><stop stop-opacity="1" stop-color="rgb(8.795166%, 88.163757%, 93.167114%)" offset="0.6875"/><stop stop-opacity="1" stop-color="rgb(8.911133%, 88.023376%, 93.527222%)" offset="0.695312"/><stop stop-opacity="1" stop-color="rgb(9.0271%, 87.882996%, 93.885803%)" offset="0.703125"/><stop stop-opacity="1" stop-color="rgb(9.143066%, 87.742615%, 94.245911%)" offset="0.710938"/><stop stop-opacity="1" stop-color="rgb(9.259033%, 87.602234%, 94.604492%)" offset="0.71875"/><stop stop-opacity="1" stop-color="rgb(9.375%, 87.463379%, 94.9646%)" offset="0.718887"/><stop stop-opacity="1" stop-color="rgb(9.432983%, 87.393188%, 95.144653%)" offset="0.726563"/><stop stop-opacity="1" stop-color="rgb(9.490967%, 87.322998%, 95.324707%)" offset="0.734375"/><stop stop-opacity="1" stop-color="rgb(9.606934%, 87.182617%, 95.683289%)" offset="0.742188"/><stop stop-opacity="1" stop-color="rgb(9.7229%, 87.042236%, 96.043396%)" offset="0.75"/><stop stop-opacity="1" stop-color="rgb(9.838867%, 86.901855%, 96.401978%)" offset="0.757813"/><stop stop-opacity="1" stop-color="rgb(9.954834%, 86.761475%, 96.762085%)" offset="0.765625"/><stop stop-opacity="1" stop-color="rgb(10.070801%, 86.621094%, 97.120667%)" offset="0.773438"/><stop stop-opacity="1" stop-color="rgb(10.186768%, 86.480713%, 97.480774%)" offset="0.78125"/><stop stop-opacity="1" stop-color="rgb(10.302734%, 86.341858%, 97.839355%)" offset="0.789062"/><stop stop-opacity="1" stop-color="rgb(10.418701%, 86.201477%, 98.199463%)" offset="0.796875"/><stop stop-opacity="1" stop-color="rgb(10.534668%, 86.061096%, 98.558044%)" offset="0.804688"/><stop stop-opacity="1" stop-color="rgb(10.650635%, 85.920715%, 98.918152%)" offset="0.8125"/><stop stop-opacity="1" stop-color="rgb(10.766602%, 85.780334%, 99.278259%)" offset="0.820312"/><stop stop-opacity="1" stop-color="rgb(10.882568%, 85.639954%, 99.636841%)" offset="0.828125"/><stop stop-opacity="1" stop-color="rgb(10.969543%, 85.534668%, 99.908447%)" offset="0.84375"/><stop stop-opacity="1" stop-color="rgb(10.998535%, 85.499573%, 100%)" offset="0.875"/><stop stop-opacity="1" stop-color="rgb(10.998535%, 85.499573%, 100%)" offset="1"/></linearGradient></defs><g fill="#000000" fill-opacity="1"><g transform="translate(126.416144, 73.838433)"><g><path d="M 21.34375 0.671875 C 15.644531 0.671875 10.300781 -0.40625 5.3125 -2.5625 C 4.78125 -2.78125 4.332031 -3.144531 3.96875 -3.65625 C 3.613281 -4.175781 3.4375 -4.726562 3.4375 -5.3125 C 3.4375 -6.082031 3.691406 -6.75 4.203125 -7.3125 C 4.722656 -7.875 5.390625 -8.15625 6.203125 -8.15625 C 6.648438 -8.15625 7.070312 -8.0625 7.46875 -7.875 C 11.601562 -6.039062 16.023438 -5.125 20.734375 -5.125 C 28.597656 -5.125 32.53125 -7.703125 32.53125 -12.859375 C 32.53125 -14.210938 32.023438 -15.335938 31.015625 -16.234375 C 30.003906 -17.128906 28.753906 -17.832031 27.265625 -18.34375 C 25.785156 -18.863281 23.675781 -19.484375 20.9375 -20.203125 C 17.300781 -21.148438 14.359375 -22.0625 12.109375 -22.9375 C 9.867188 -23.8125 7.941406 -25.125 6.328125 -26.875 C 4.710938 -28.625 3.90625 -30.957031 3.90625 -33.875 C 3.90625 -36.4375 4.578125 -38.757812 5.921875 -40.84375 C 7.273438 -42.925781 9.265625 -44.582031 11.890625 -45.8125 C 14.515625 -47.050781 17.664062 -47.671875 21.34375 -47.671875 C 26.28125 -47.671875 30.75 -46.929688 34.75 -45.453125 C 36.007812 -45.003906 36.640625 -44.109375 36.640625 -42.765625 C 36.640625 -42.046875 36.390625 -41.394531 35.890625 -40.8125 C 35.398438 -40.226562 34.75 -39.9375 33.9375 -39.9375 C 33.664062 -39.9375 33.304688 -40.023438 32.859375 -40.203125 C 29.359375 -41.410156 25.742188 -42.015625 22.015625 -42.015625 C 18.472656 -42.015625 15.585938 -41.34375 13.359375 -40 C 11.140625 -38.65625 10.03125 -36.769531 10.03125 -34.34375 C 10.03125 -32.726562 10.554688 -31.414062 11.609375 -30.40625 C 12.671875 -29.394531 14 -28.609375 15.59375 -28.046875 C 17.1875 -27.484375 19.351562 -26.890625 22.09375 -26.265625 C 25.632812 -25.410156 28.492188 -24.554688 30.671875 -23.703125 C 32.847656 -22.847656 34.710938 -21.519531 36.265625 -19.71875 C 37.816406 -17.925781 38.59375 -15.503906 38.59375 -12.453125 C 38.59375 -9.941406 37.875 -7.6875 36.4375 -5.6875 C 35 -3.6875 32.976562 -2.125 30.375 -1 C 27.769531 0.113281 24.757812 0.671875 21.34375 0.671875 Z M 21.34375 0.671875 "/></g></g></g><g fill="#000000" fill-opacity="1"><g transform="translate(167.8942, 73.838433)"><g><path d="M 9.5625 0.34375 C 8.707031 0.34375 7.988281 0.0507812 7.40625 -0.53125 C 6.820312 -1.125 6.53125 -1.84375 6.53125 -2.6875 L 6.53125 -42.890625 C 6.53125 -44.109375 6.957031 -45.15625 7.8125 -46.03125 C 8.664062 -46.90625 9.695312 -47.34375 10.90625 -47.34375 L 13.125 -47.34375 C 14.03125 -47.34375 14.851562 -47.070312 15.59375 -46.53125 C 16.332031 -45.988281 16.878906 -45.316406 17.234375 -44.515625 L 32.53125 -6.390625 L 47.8125 -44.515625 C 48.175781 -45.316406 48.726562 -45.988281 49.46875 -46.53125 C 50.207031 -47.070312 51.023438 -47.34375 51.921875 -47.34375 L 54.140625 -47.34375 C 55.359375 -47.34375 56.390625 -46.90625 57.234375 -46.03125 C 58.085938 -45.15625 58.515625 -44.109375 58.515625 -42.890625 L 58.515625 -2.6875 C 58.515625 -1.84375 58.222656 -1.125 57.640625 -0.53125 C 57.054688 0.0507812 56.335938 0.34375 55.484375 0.34375 C 54.640625 0.34375 53.910156 0.0507812 53.296875 -0.53125 C 52.691406 -1.125 52.390625 -1.84375 52.390625 -2.6875 L 52.390625 -40.9375 L 36.84375 -2.484375 C 36.476562 -1.640625 35.898438 -0.957031 35.109375 -0.4375 C 34.328125 0.0820312 33.46875 0.34375 32.53125 0.34375 C 31.582031 0.34375 30.710938 0.0820312 29.921875 -0.4375 C 29.140625 -0.957031 28.570312 -1.640625 28.21875 -2.484375 L 12.65625 -40.9375 L 12.65625 -2.6875 C 12.65625 -1.84375 12.351562 -1.125 11.75 -0.53125 C 11.144531 0.0507812 10.414062 0.34375 9.5625 0.34375 Z M 9.5625 0.34375 "/></g></g></g><g fill="#000000" fill-opacity="1"><g transform="translate(232.93933, 73.838433)"><g><path d="M 6.390625 0.34375 C 5.492188 0.34375 4.765625 0.0507812 4.203125 -0.53125 C 3.640625 -1.125 3.359375 -1.84375 3.359375 -2.6875 C 3.359375 -3.050781 3.472656 -3.503906 3.703125 -4.046875 L 20.875 -44.578125 C 21.238281 -45.390625 21.742188 -46.050781 22.390625 -46.5625 C 23.046875 -47.082031 23.84375 -47.34375 24.78125 -47.34375 L 25.453125 -47.34375 C 26.398438 -47.34375 27.195312 -47.082031 27.84375 -46.5625 C 28.5 -46.050781 29.003906 -45.390625 29.359375 -44.578125 L 46.53125 -4.046875 C 46.757812 -3.503906 46.875 -3.050781 46.875 -2.6875 C 46.875 -1.84375 46.59375 -1.125 46.03125 -0.53125 C 45.46875 0.0507812 44.738281 0.34375 43.84375 0.34375 C 43.207031 0.34375 42.628906 0.175781 42.109375 -0.15625 C 41.597656 -0.5 41.207031 -0.960938 40.9375 -1.546875 L 36.5625 -12.046875 L 13.671875 -12.046875 L 9.296875 -1.546875 C 9.023438 -0.960938 8.628906 -0.5 8.109375 -0.15625 C 7.597656 0.175781 7.023438 0.34375 6.390625 0.34375 Z M 16.03125 -17.640625 L 34.203125 -17.640625 L 25.125 -39.53125 Z M 16.03125 -17.640625 "/></g></g></g><g fill="#000000" fill-opacity="1"><g transform="translate(283.170867, 73.838433)"><g><path d="M 9.5625 0.34375 C 8.707031 0.34375 7.988281 0.0507812 7.40625 -0.53125 C 6.820312 -1.125 6.53125 -1.84375 6.53125 -2.6875 L 6.53125 -43.90625 C 6.53125 -44.757812 6.820312 -45.488281 7.40625 -46.09375 C 7.988281 -46.695312 8.707031 -47 9.5625 -47 L 25.25 -47 C 31.351562 -47 35.929688 -45.742188 38.984375 -43.234375 C 42.046875 -40.722656 43.578125 -37.421875 43.578125 -33.328125 C 43.578125 -30.640625 42.820312 -28.179688 41.3125 -25.953125 C 39.8125 -23.734375 37.625 -22.128906 34.75 -21.140625 C 37.976562 -20.285156 40.1875 -18.273438 41.375 -15.109375 C 42.570312 -11.953125 43.171875 -8.847656 43.171875 -5.796875 L 43.171875 -2.6875 C 43.171875 -1.84375 42.878906 -1.125 42.296875 -0.53125 C 41.710938 0.0507812 40.992188 0.34375 40.140625 0.34375 C 39.191406 0.34375 38.4375 0.0625 37.875 -0.5 C 37.3125 -1.0625 37.03125 -1.789062 37.03125 -2.6875 L 37.03125 -4.71875 C 37.03125 -6.957031 36.828125 -9.03125 36.421875 -10.9375 C 36.023438 -12.851562 35.0625 -14.5625 33.53125 -16.0625 C 32.007812 -17.5625 29.695312 -18.3125 26.59375 -18.3125 L 12.65625 -18.3125 L 12.65625 -2.6875 C 12.65625 -1.84375 12.351562 -1.125 11.75 -0.53125 C 11.144531 0.0507812 10.414062 0.34375 9.5625 0.34375 Z M 24.84375 -24.109375 C 28.707031 -24.109375 31.769531 -24.867188 34.03125 -26.390625 C 36.300781 -27.921875 37.4375 -30.078125 37.4375 -32.859375 C 37.4375 -35.554688 36.457031 -37.625 34.5 -39.0625 C 32.550781 -40.5 29.222656 -41.21875 24.515625 -41.21875 L 12.65625 -41.21875 L 12.65625 -24.109375 Z M 24.84375 -24.109375 "/></g></g></g><g fill="#000000" fill-opacity="1"><g transform="translate(331.113027, 73.838433)"><g><path d="M 20.46875 0.34375 C 19.613281 0.34375 18.894531 0.0507812 18.3125 -0.53125 C 17.726562 -1.125 17.4375 -1.84375 17.4375 -2.6875 L 17.4375 -41.28125 L 3.703125 -41.28125 C 2.890625 -41.28125 2.210938 -41.546875 1.671875 -42.078125 C 1.140625 -42.617188 0.875 -43.296875 0.875 -44.109375 C 0.875 -44.921875 1.140625 -45.601562 1.671875 -46.15625 C 2.210938 -46.71875 2.890625 -47 3.703125 -47 L 37.234375 -47 C 38.046875 -47 38.734375 -46.71875 39.296875 -46.15625 C 39.859375 -45.601562 40.140625 -44.921875 40.140625 -44.109375 C 40.140625 -43.296875 39.859375 -42.617188 39.296875 -42.078125 C 38.734375 -41.546875 38.046875 -41.28125 37.234375 -41.28125 L 23.5625 -41.28125 L 23.5625 -2.6875 C 23.5625 -1.84375 23.257812 -1.125 22.65625 -0.53125 C 22.050781 0.0507812 21.320312 0.34375 20.46875 0.34375 Z M 20.46875 0.34375 "/></g></g></g><g clip-path="url(#cd51bddf53)"><g clip-path="url(#99f5d17227)"><path fill="url(#bb61ee1cc6)" d="M 0.0117188 16.21875 L 0.0117188 138.460938 L 116.25 138.460938 L 116.25 16.21875 Z M 0.0117188 16.21875 " fill-rule="nonzero"/></g></g><g fill="#000000" fill-opacity="1"><g transform="translate(126.416144, 128.949337)"><g><path d="M 5.6875 0.203125 C 5.175781 0.203125 4.75 0.03125 4.40625 -0.3125 C 4.0625 -0.664062 3.890625 -1.097656 3.890625 -1.609375 L 3.890625 -25.53125 C 3.890625 -26.25 4.140625 -26.867188 4.640625 -27.390625 C 5.148438 -27.910156 5.769531 -28.171875 6.5 -28.171875 L 7.8125 -28.171875 C 8.34375 -28.171875 8.828125 -28.007812 9.265625 -27.6875 C 9.710938 -27.375 10.046875 -26.972656 10.265625 -26.484375 L 19.359375 -3.8125 L 28.453125 -26.484375 C 28.671875 -26.972656 29 -27.375 29.4375 -27.6875 C 29.875 -28.007812 30.363281 -28.171875 30.90625 -28.171875 L 32.21875 -28.171875 C 32.945312 -28.171875 33.5625 -27.910156 34.0625 -27.390625 C 34.570312 -26.867188 34.828125 -26.25 34.828125 -25.53125 L 34.828125 -1.609375 C 34.828125 -1.097656 34.648438 -0.664062 34.296875 -0.3125 C 33.953125 0.03125 33.53125 0.203125 33.03125 0.203125 C 32.519531 0.203125 32.082031 0.03125 31.71875 -0.3125 C 31.363281 -0.664062 31.1875 -1.097656 31.1875 -1.609375 L 31.1875 -24.375 L 21.921875 -1.484375 C 21.710938 -0.972656 21.375 -0.5625 20.90625 -0.25 C 20.4375 0.0507812 19.921875 0.203125 19.359375 0.203125 C 18.796875 0.203125 18.28125 0.0507812 17.8125 -0.25 C 17.34375 -0.5625 17.003906 -0.972656 16.796875 -1.484375 L 7.53125 -24.375 L 7.53125 -1.609375 C 7.53125 -1.097656 7.347656 -0.664062 6.984375 -0.3125 C 6.628906 0.03125 6.195312 0.203125 5.6875 0.203125 Z M 5.6875 0.203125 "/></g></g></g><g fill="#000000" fill-opacity="1"><g transform="translate(165.117383, 128.949337)"><g><path d="M 16.265625 0.40625 C 13.460938 0.40625 11.003906 -0.207031 8.890625 -1.4375 C 6.785156 -2.664062 5.15625 -4.363281 4 -6.53125 C 2.851562 -8.695312 2.253906 -11.179688 2.203125 -13.984375 C 2.253906 -16.796875 2.851562 -19.28125 4 -21.4375 C 5.15625 -23.601562 6.785156 -25.300781 8.890625 -26.53125 C 11.003906 -27.757812 13.460938 -28.375 16.265625 -28.375 C 19.078125 -28.375 21.53125 -27.757812 23.625 -26.53125 C 25.71875 -25.300781 27.347656 -23.597656 28.515625 -21.421875 C 29.679688 -19.242188 30.289062 -16.765625 30.34375 -13.984375 C 30.289062 -11.203125 29.679688 -8.722656 28.515625 -6.546875 C 27.347656 -4.367188 25.71875 -2.664062 23.625 -1.4375 C 21.53125 -0.207031 19.078125 0.40625 16.265625 0.40625 Z M 16.265625 -3 C 18.410156 -3 20.269531 -3.476562 21.84375 -4.4375 C 23.414062 -5.40625 24.613281 -6.71875 25.4375 -8.375 C 26.269531 -10.03125 26.6875 -11.898438 26.6875 -13.984375 C 26.6875 -16.066406 26.269531 -17.9375 25.4375 -19.59375 C 24.613281 -21.25 23.414062 -22.554688 21.84375 -23.515625 C 20.269531 -24.484375 18.410156 -24.96875 16.265625 -24.96875 C 14.109375 -24.96875 12.25 -24.484375 10.6875 -23.515625 C 9.125 -22.554688 7.925781 -21.25 7.09375 -19.59375 C 6.257812 -17.9375 5.84375 -16.066406 5.84375 -13.984375 C 5.84375 -11.898438 6.257812 -10.03125 7.09375 -8.375 C 7.925781 -6.71875 9.125 -5.40625 10.6875 -4.4375 C 12.25 -3.476562 14.109375 -3 16.265625 -3 Z M 16.265625 -3 "/></g></g></g><g fill="#000000" fill-opacity="1"><g transform="translate(197.648857, 128.949337)"><g><path d="M 5.6875 0.203125 C 5.175781 0.203125 4.75 0.03125 4.40625 -0.3125 C 4.0625 -0.664062 3.890625 -1.097656 3.890625 -1.609375 L 3.890625 -25.53125 C 3.890625 -26.25 4.140625 -26.867188 4.640625 -27.390625 C 5.148438 -27.910156 5.769531 -28.171875 6.5 -28.171875 L 7.015625 -28.171875 C 7.867188 -28.171875 8.601562 -27.769531 9.21875 -26.96875 L 24.640625 -4.6875 L 24.640625 -26.328125 C 24.640625 -26.835938 24.8125 -27.269531 25.15625 -27.625 C 25.507812 -27.988281 25.941406 -28.171875 26.453125 -28.171875 C 26.960938 -28.171875 27.394531 -27.988281 27.75 -27.625 C 28.113281 -27.269531 28.296875 -26.835938 28.296875 -26.328125 L 28.296875 -2.40625 C 28.296875 -1.6875 28.035156 -1.070312 27.515625 -0.5625 C 26.992188 -0.0507812 26.375 0.203125 25.65625 0.203125 L 25.171875 0.203125 C 24.742188 0.203125 24.34375 0.101562 23.96875 -0.09375 C 23.59375 -0.300781 23.285156 -0.5625 23.046875 -0.875 L 7.53125 -23.28125 L 7.53125 -1.609375 C 7.53125 -1.097656 7.347656 -0.664062 6.984375 -0.3125 C 6.628906 0.03125 6.195312 0.203125 5.6875 0.203125 Z M 5.6875 0.203125 "/></g></g></g><g fill="#000000" fill-opacity="1"><g transform="translate(229.81977, 128.949337)"><g><path d="M 5.6875 0 C 5.175781 0 4.75 -0.171875 4.40625 -0.515625 C 4.0625 -0.867188 3.890625 -1.296875 3.890625 -1.796875 L 3.890625 -26.125 C 3.890625 -26.632812 4.0625 -27.066406 4.40625 -27.421875 C 4.75 -27.785156 5.175781 -27.96875 5.6875 -27.96875 L 21.765625 -27.96875 C 22.242188 -27.96875 22.648438 -27.800781 22.984375 -27.46875 C 23.316406 -27.132812 23.484375 -26.726562 23.484375 -26.25 C 23.484375 -25.769531 23.316406 -25.367188 22.984375 -25.046875 C 22.648438 -24.722656 22.242188 -24.5625 21.765625 -24.5625 L 7.53125 -24.5625 L 7.53125 -15.703125 L 20.3125 -15.703125 C 20.800781 -15.703125 21.210938 -15.535156 21.546875 -15.203125 C 21.878906 -14.867188 22.046875 -14.460938 22.046875 -13.984375 C 22.046875 -13.503906 21.878906 -13.101562 21.546875 -12.78125 C 21.210938 -12.457031 20.800781 -12.296875 20.3125 -12.296875 L 7.53125 -12.296875 L 7.53125 -3.40625 L 21.765625 -3.40625 C 22.242188 -3.40625 22.648438 -3.238281 22.984375 -2.90625 C 23.316406 -2.570312 23.484375 -2.164062 23.484375 -1.6875 C 23.484375 -1.207031 23.316406 -0.804688 22.984375 -0.484375 C 22.648438 -0.160156 22.242188 0 21.765625 0 Z M 5.6875 0 "/></g></g></g><g fill="#000000" fill-opacity="1"><g transform="translate(255.380221, 128.949337)"><g><path d="M 12.828125 0.203125 C 12.316406 0.203125 11.878906 0.03125 11.515625 -0.3125 C 11.160156 -0.664062 10.984375 -1.097656 10.984375 -1.609375 L 10.984375 -11.828125 L 1.40625 -25.25 C 1.1875 -25.59375 1.078125 -25.953125 1.078125 -26.328125 C 1.078125 -26.835938 1.242188 -27.269531 1.578125 -27.625 C 1.910156 -27.988281 2.332031 -28.171875 2.84375 -28.171875 C 3.507812 -28.171875 4.046875 -27.863281 4.453125 -27.25 L 12.828125 -15.0625 L 21.203125 -27.25 C 21.597656 -27.863281 22.128906 -28.171875 22.796875 -28.171875 C 23.304688 -28.171875 23.734375 -27.988281 24.078125 -27.625 C 24.429688 -27.269531 24.59375 -26.835938 24.5625 -26.328125 C 24.5625 -25.953125 24.457031 -25.59375 24.25 -25.25 L 14.625 -11.828125 L 14.625 -1.609375 C 14.625 -1.097656 14.453125 -0.664062 14.109375 -0.3125 C 13.765625 0.03125 13.335938 0.203125 12.828125 0.203125 Z M 12.828125 0.203125 "/></g></g></g><g fill="#000000" fill-opacity="1"><g transform="translate(280.980734, 128.949337)"><g/></g></g><g fill="#000000" fill-opacity="1"><g transform="translate(291.39722, 128.949337)"><g><path d="M 16.234375 0.40625 C 13.554688 0.40625 11.15625 -0.175781 9.03125 -1.34375 C 6.90625 -2.507812 5.234375 -4.179688 4.015625 -6.359375 C 2.804688 -8.535156 2.203125 -11.078125 2.203125 -13.984375 C 2.203125 -16.898438 2.804688 -19.445312 4.015625 -21.625 C 5.234375 -23.800781 6.90625 -25.46875 9.03125 -26.625 C 11.15625 -27.789062 13.554688 -28.375 16.234375 -28.375 C 18.046875 -28.375 19.664062 -28.160156 21.09375 -27.734375 C 22.53125 -27.304688 23.957031 -26.691406 25.375 -25.890625 C 25.957031 -25.566406 26.25 -25.0625 26.25 -24.375 C 26.25 -23.96875 26.101562 -23.609375 25.8125 -23.296875 C 25.519531 -22.992188 25.128906 -22.84375 24.640625 -22.84375 C 24.378906 -22.84375 24.140625 -22.894531 23.921875 -23 C 22.742188 -23.613281 21.59375 -24.082031 20.46875 -24.40625 C 19.351562 -24.726562 18.0625 -24.890625 16.59375 -24.890625 C 14.289062 -24.890625 12.332031 -24.414062 10.71875 -23.46875 C 9.101562 -22.519531 7.882812 -21.222656 7.0625 -19.578125 C 6.25 -17.929688 5.84375 -16.066406 5.84375 -13.984375 C 5.84375 -11.898438 6.25 -10.035156 7.0625 -8.390625 C 7.882812 -6.753906 9.101562 -5.460938 10.71875 -4.515625 C 12.332031 -3.566406 14.289062 -3.09375 16.59375 -3.09375 C 18.0625 -3.09375 19.351562 -3.25 20.46875 -3.5625 C 21.59375 -3.882812 22.742188 -4.351562 23.921875 -4.96875 C 24.140625 -5.070312 24.378906 -5.125 24.640625 -5.125 C 25.128906 -5.125 25.519531 -4.976562 25.8125 -4.6875 C 26.101562 -4.394531 26.25 -4.035156 26.25 -3.609375 C 26.25 -2.910156 25.957031 -2.398438 25.375 -2.078125 C 23.957031 -1.273438 22.53125 -0.660156 21.09375 -0.234375 C 19.664062 0.191406 18.046875 0.40625 16.234375 0.40625 Z M 16.234375 0.40625 "/></g></g></g><g fill="#000000" fill-opacity="1"><g transform="translate(319.241277, 128.949337)"><g><path d="M 5.6875 0.203125 C 5.175781 0.203125 4.75 0.03125 4.40625 -0.3125 C 4.0625 -0.664062 3.890625 -1.097656 3.890625 -1.609375 L 3.890625 -26.125 C 3.890625 -26.632812 4.0625 -27.066406 4.40625 -27.421875 C 4.75 -27.785156 5.175781 -27.96875 5.6875 -27.96875 L 14.828125 -27.96875 C 17.367188 -27.96875 19.441406 -27.539062 21.046875 -26.6875 C 22.648438 -25.832031 23.796875 -24.738281 24.484375 -23.40625 C 25.179688 -22.070312 25.53125 -20.628906 25.53125 -19.078125 C 25.53125 -17.523438 25.179688 -16.082031 24.484375 -14.75 C 23.796875 -13.414062 22.648438 -12.320312 21.046875 -11.46875 C 19.441406 -10.613281 17.367188 -10.1875 14.828125 -10.1875 L 7.53125 -10.1875 L 7.53125 -1.609375 C 7.53125 -1.097656 7.347656 -0.664062 6.984375 -0.3125 C 6.628906 0.03125 6.195312 0.203125 5.6875 0.203125 Z M 14.46875 -13.625 C 17.195312 -13.625 19.113281 -14.144531 20.21875 -15.1875 C 21.320312 -16.226562 21.875 -17.523438 21.875 -19.078125 C 21.875 -20.628906 21.320312 -21.925781 20.21875 -22.96875 C 19.113281 -24.007812 17.195312 -24.53125 14.46875 -24.53125 L 7.53125 -24.53125 L 7.53125 -13.625 Z M 14.46875 -13.625 "/></g></g></g><g fill="#000000" fill-opacity="1"><g transform="translate(346.163866, 128.949337)"><g><path d="M 5.6875 0 C 5.175781 0 4.75 -0.171875 4.40625 -0.515625 C 4.0625 -0.867188 3.890625 -1.296875 3.890625 -1.796875 L 3.890625 -26.125 C 3.890625 -26.632812 4.0625 -27.066406 4.40625 -27.421875 C 4.75 -27.785156 5.175781 -27.96875 5.6875 -27.96875 L 21.765625 -27.96875 C 22.242188 -27.96875 22.648438 -27.800781 22.984375 -27.46875 C 23.316406 -27.132812 23.484375 -26.726562 23.484375 -26.25 C 23.484375 -25.769531 23.316406 -25.367188 22.984375 -25.046875 C 22.648438 -24.722656 22.242188 -24.5625 21.765625 -24.5625 L 7.53125 -24.5625 L 7.53125 -15.703125 L 20.3125 -15.703125 C 20.800781 -15.703125 21.210938 -15.535156 21.546875 -15.203125 C 21.878906 -14.867188 22.046875 -14.460938 22.046875 -13.984375 C 22.046875 -13.503906 21.878906 -13.101562 21.546875 -12.78125 C 21.210938 -12.457031 20.800781 -12.296875 20.3125 -12.296875 L 7.53125 -12.296875 L 7.53125 -3.40625 L 21.765625 -3.40625 C 22.242188 -3.40625 22.648438 -3.238281 22.984375 -2.90625 C 23.316406 -2.570312 23.484375 -2.164062 23.484375 -1.6875 C 23.484375 -1.207031 23.316406 -0.804688 22.984375 -0.484375 C 22.648438 -0.160156 22.242188 0 21.765625 0 Z M 5.6875 0 "/></g></g></g></svg>